{
  "source": "C:\\Users\\Peter\\Desktop\\stuff\\MIUN\\quantitative_research\\video_compression\\videos\\BVI-HD\\BVI-HD_CDVL_videos\\ORIG\\PlasmaAveragePan_1920x1080_60fps.mp4",
  "output": "C:\\Users\\Peter\\Desktop\\stuff\\MIUN\\quantitative_research\\video_compression\\compressed_videos\\BVI-HD\\av1\\2\\PlasmaAveragePan_1920x1080_60fps_av1.mkv",
  "codec": "av1",
  "ok": "Input #0, mov,mp4,m4a,3gp,3g2,mj2, from 'C:\\Users\\Peter\\Desktop\\stuff\\MIUN\\quantitative_research\\video_compression\\videos\\BVI-HD\\BVI-HD_CDVL_videos\\ORIG\\PlasmaAveragePan_1920x1080_60fps.mp4':\n  Metadata:\n    major_brand     : isom\n    minor_version   : 512\n    compatible_brands: isomiso2avc1mp41\n    encoder         : Lavf54.28.101\n  Duration: 00:00:05.00, start: 0.000000, bitrate: 73730 kb/s\n  Stream #0:0[0x1](und): Video: h264 (High 4:4:4 Predictive) (avc1 / 0x31637661), yuv420p(progressive), 1920x1080, 73727 kb/s, 60 fps, 60 tbr, 60 tbn (default)\n    Metadata:\n      handler_name    : VideoHandler\n      vendor_id       : [0][0][0][0]\n[out#0/matroska @ 000001a46cfc7900] Codec AVOption b:a (set bitrate (in bits/s)) has not been used for any stream. The most likely reason is either wrong type (e.g. a video option with no video streams) or that it is a private option of some decoder which was not actually used for any stream.\nStream mapping:\n  Stream #0:0 -> #0:0 (h264 (native) -> av1 (libsvtav1))\nPress [q] to stop, [?] for help\nSvt[info]: -------------------------------------------\nSvt[info]: SVT [version]:\tSVT-AV1 Encoder Lib v3.1.0-19-g6ecfe8ec\nSvt[info]: SVT [build]  :\tGCC 15.2.0\t 64 bit\nSvt[info]: LIB Build date: Aug 17 2025 11:37:13\nSvt[info]: -------------------------------------------\nSvt[info]: Level of Parallelism: 5\nSvt[info]: Number of PPCS 93\nSvt[info]: [asm level on system : up to avx2]\nSvt[info]: [asm level selected : up to avx2]\nSvt[info]: -------------------------------------------\nSvt[info]: SVT [config]: main profile\ttier (auto)\tlevel (auto)\nSvt[info]: SVT [config]: width / height / fps numerator / fps denominator \t\t: 1920 / 1080 / 60 / 1\nSvt[info]: SVT [config]: bit-depth / color format \t\t\t\t\t: 8 / YUV420\nSvt[info]: SVT [config]: preset / tune / pred struct \t\t\t\t\t: 4 / PSNR / random access\nSvt[info]: SVT [config]: gop size / mini-gop size / key-frame type \t\t\t: 321 / 16 / key frame\nSvt[info]: SVT [config]: BRC mode / target bitrate (kbps)\t\t\t\t: VBR / 2000 \nSvt[info]: SVT [config]: AQ mode / Variance Boost \t\t\t\t\t: 2 / 0\nSvt[info]: SVT [config]: sharpness / luminance-based QP bias \t\t\t\t: 0 / 0\nSvt[info]: SVT [config]: QP scale compress strength \t\t\t\t\t: 0\nSvt[info]: -------------------------------------------\nOutput #0, matroska, to 'C:\\Users\\Peter\\Desktop\\stuff\\MIUN\\quantitative_research\\video_compression\\compressed_videos\\BVI-HD\\av1\\2\\PlasmaAveragePan_1920x1080_60fps_av1.mkv':\n  Metadata:\n    major_brand     : isom\n    minor_version   : 512\n    compatible_brands: isomiso2avc1mp41\n    encoder         : Lavf62.3.100\n  Stream #0:0(und): Video: av1 (AV01 / 0x31305641), yuv420p(tv, progressive), 1920x1080, q=2-31, 2000 kb/s, 60 fps, 1k tbn (default)\n    Metadata:\n      encoder         : Lavc62.11.100 libsvtav1\n      handler_name    : VideoHandler\n      vendor_id       : [0][0][0][0]\n    Side data:\n      cpb: bitrate max/min/avg: 0/0/2000000 buffer size: 2000000 vbv_delay: N/A\nframe=    0 fps=0.0 q=0.0 size=       0KiB time=N/A bitrate=N/A speed=N/A elapsed=0:00:01.03    \nframe=    0 fps=0.0 q=0.0 size=       0KiB time=N/A bitrate=N/A speed=N/A elapsed=0:00:01.56    \nframe=    0 fps=0.0 q=0.0 size=       0KiB time=N/A bitrate=N/A speed=N/A elapsed=0:00:02.11    \nframe=    1 fps=0.4 q=20.0 size=       1KiB time=00:00:00.00 bitrate=N/A speed=   0x elapsed=0:00:02.63    \nframe=    1 fps=0.3 q=20.0 size=       1KiB time=00:00:00.00 bitrate=N/A speed=   0x elapsed=0:00:03.15    \nframe=    1 fps=0.3 q=20.0 size=       1KiB time=00:00:00.00 bitrate=N/A speed=   0x elapsed=0:00:03.68    \nframe=    2 fps=0.5 q=35.0 size=       1KiB time=00:00:00.01 bitrate= 341.8kbits/s speed=0.00397x elapsed=0:00:04.20    \nframe=    5 fps=1.1 q=30.0 size=       1KiB time=00:00:00.06 bitrate=  85.4kbits/s speed=0.0141x elapsed=0:00:04.71    \nframe=    7 fps=1.3 q=30.0 size=       1KiB time=00:00:00.10 bitrate=  57.0kbits/s speed=0.0191x elapsed=0:00:05.24    \nframe=   10 fps=1.7 q=35.0 size=       1KiB time=00:00:00.13 bitrate=  42.7kbits/s speed=0.0229x elapsed=0:00:05.81    \nframe=   13 fps=2.0 q=28.0 size=       1KiB time=00:00:00.20 bitrate=  28.5kbits/s speed=0.0315x elapsed=0:00:06.35    \nframe=   17 fps=2.5 q=20.0 size=       1KiB time=00:00:00.26 bitrate=  21.4kbits/s speed=0.0388x elapsed=0:00:06.86    \nframe=   20 fps=2.7 q=35.0 size=       1KiB time=00:00:00.31 bitrate=  18.0kbits/s speed=0.0428x elapsed=0:00:07.39    \nframe=   22 fps=2.8 q=35.0 size=       1KiB time=00:00:00.35 bitrate=  16.3kbits/s speed=0.0442x elapsed=0:00:07.91    \nframe=   25 fps=3.0 q=27.0 size=       1KiB time=00:00:00.40 bitrate=  14.2kbits/s speed=0.0474x elapsed=0:00:08.43    \nframe=   29 fps=3.2 q=28.0 size=       1KiB time=00:00:00.46 bitrate=  12.2kbits/s speed=0.0519x elapsed=0:00:08.99    \nframe=   33 fps=3.5 q=21.0 size=       1KiB time=00:00:00.53 bitrate=  10.7kbits/s speed=0.0559x elapsed=0:00:09.53    \nframe=   35 fps=3.5 q=33.0 size=       1KiB time=00:00:00.56 bitrate=  10.1kbits/s speed=0.0563x elapsed=0:00:10.06    \nframe=   38 fps=3.6 q=35.0 size=       1KiB time=00:00:00.61 bitrate=   9.2kbits/s speed=0.0583x elapsed=0:00:10.58    \nframe=   40 fps=3.6 q=35.0 size=       1KiB time=00:00:00.65 bitrate=   8.8kbits/s speed=0.0585x elapsed=0:00:11.10    \nframe=   43 fps=3.7 q=33.0 size=       1KiB time=00:00:00.70 bitrate=   8.1kbits/s speed=0.0602x elapsed=0:00:11.62    \nframe=   48 fps=4.0 q=36.0 size=       1KiB time=00:00:00.78 bitrate=   7.3kbits/s speed=0.0645x elapsed=0:00:12.14    \nframe=   51 fps=4.0 q=34.0 size=       1KiB time=00:00:00.83 bitrate=   6.8kbits/s speed=0.0658x elapsed=0:00:12.66    \nframe=   54 fps=4.1 q=36.0 size=       1KiB time=00:00:00.88 bitrate=   6.4kbits/s speed=0.067x elapsed=0:00:13.19    \nframe=   55 fps=4.0 q=34.0 size=       1KiB time=00:00:00.90 bitrate=   6.3kbits/s speed=0.0656x elapsed=0:00:13.70    \nframe=   60 fps=4.2 q=38.0 size=       1KiB time=00:00:00.96 bitrate=   5.9kbits/s speed=0.0678x elapsed=0:00:14.25    \nframe=   64 fps=4.3 q=38.0 size=       1KiB time=00:00:01.05 bitrate=   5.4kbits/s speed=0.0709x elapsed=0:00:14.80    \nframe=   67 fps=4.4 q=34.0 size=       1KiB time=00:00:01.10 bitrate=   5.2kbits/s speed=0.0718x elapsed=0:00:15.32    \nframe=   70 fps=4.4 q=38.0 size=       1KiB time=00:00:01.15 bitrate=   5.0kbits/s speed=0.0725x elapsed=0:00:15.86    \nframe=   73 fps=4.5 q=31.0 size=       1KiB time=00:00:01.20 bitrate=   4.7kbits/s speed=0.0732x elapsed=0:00:16.38    \nframe=   77 fps=4.6 q=32.0 size=       1KiB time=00:00:01.25 bitrate=   4.6kbits/s speed=0.0739x elapsed=0:00:16.91    \nframe=   80 fps=4.6 q=39.0 size=       1KiB time=00:00:01.31 bitrate=   4.3kbits/s speed=0.0755x elapsed=0:00:17.44    \nframe=   83 fps=4.6 q=37.0 size=       1KiB time=00:00:01.36 bitrate=   4.2kbits/s speed=0.0761x elapsed=0:00:17.96    \nframe=   86 fps=4.7 q=39.0 size=       1KiB time=00:00:01.41 bitrate=   4.0kbits/s speed=0.0766x elapsed=0:00:18.48    \nframe=   90 fps=4.7 q=39.0 size=       1KiB time=00:00:01.48 bitrate=   3.8kbits/s speed=0.078x elapsed=0:00:19.02    \nframe=   94 fps=4.8 q=40.0 size=       1KiB time=00:00:01.55 bitrate=   3.7kbits/s speed=0.0793x elapsed=0:00:19.54    \nframe=   98 fps=4.9 q=40.0 size=       1KiB time=00:00:01.61 bitrate=   3.5kbits/s speed=0.0806x elapsed=0:00:20.06    \nframe=  102 fps=5.0 q=40.0 size=       1KiB time=00:00:01.68 bitrate=   3.4kbits/s speed=0.0818x elapsed=0:00:20.57    \nframe=  103 fps=4.9 q=38.0 size=       1KiB time=00:00:01.70 bitrate=   3.4kbits/s speed=0.0805x elapsed=0:00:21.10    \nframe=  108 fps=5.0 q=40.0 size=       1KiB time=00:00:01.78 bitrate=   3.2kbits/s speed=0.0825x elapsed=0:00:21.62    \nframe=  113 fps=5.1 q=26.0 size=       1KiB time=00:00:01.86 bitrate=   3.1kbits/s speed=0.0843x elapsed=0:00:22.13    \nframe=  116 fps=5.1 q=40.0 size=       1KiB time=00:00:01.91 bitrate=   3.0kbits/s speed=0.0846x elapsed=0:00:22.65    \nframe=  119 fps=5.1 q=37.0 size=       1KiB time=00:00:01.96 bitrate=   2.9kbits/s speed=0.0847x elapsed=0:00:23.22    \nframe=  122 fps=5.1 q=40.0 size=       1KiB time=00:00:02.01 bitrate=   2.8kbits/s speed=0.0847x elapsed=0:00:23.79    \nframe=  126 fps=5.2 q=40.0 size=       1KiB time=00:00:02.08 bitrate=   2.7kbits/s speed=0.0854x elapsed=0:00:24.38    \nframe=  129 fps=5.2 q=27.0 size=       1KiB time=00:00:02.13 bitrate=   2.7kbits/s speed=0.0857x elapsed=0:00:24.90    \nframe=  132 fps=5.2 q=40.0 size=       1KiB time=00:00:02.18 bitrate=   2.6kbits/s speed=0.0858x elapsed=0:00:25.43    \nframe=  135 fps=5.2 q=38.0 size=       1KiB time=00:00:02.23 bitrate=   2.6kbits/s speed=0.086x elapsed=0:00:25.97    \nframe=  139 fps=5.2 q=37.0 size=       1KiB time=00:00:02.30 bitrate=   2.5kbits/s speed=0.0867x elapsed=0:00:26.51    \nframe=  145 fps=5.4 q=27.0 size=       1KiB time=00:00:02.40 bitrate=   2.4kbits/s speed=0.0887x elapsed=0:00:27.04    \nframe=  149 fps=5.4 q=37.0 size=       1KiB time=00:00:02.46 bitrate=   2.3kbits/s speed=0.0895x elapsed=0:00:27.56    \nframe=  153 fps=5.4 q=33.0 size=       1KiB time=00:00:02.50 bitrate=   2.3kbits/s speed=0.089x elapsed=0:00:28.10    \nframe=  157 fps=5.5 q=34.0 size=       1KiB time=00:00:02.60 bitrate=   2.2kbits/s speed=0.0907x elapsed=0:00:28.65    \nframe=  162 fps=5.6 q=40.0 size=       1KiB time=00:00:02.68 bitrate=   2.1kbits/s speed=0.092x elapsed=0:00:29.17    \nframe=  166 fps=5.6 q=40.0 size=       1KiB time=00:00:02.75 bitrate=   2.1kbits/s speed=0.0927x elapsed=0:00:29.68    \nframe=  169 fps=5.6 q=34.0 size=       1KiB time=00:00:02.80 bitrate=   2.0kbits/s speed=0.0927x elapsed=0:00:30.19    \nframe=  175 fps=5.7 q=37.0 size=       1KiB time=00:00:02.90 bitrate=   2.0kbits/s speed=0.0944x elapsed=0:00:30.72    \nframe=  180 fps=5.8 q=41.0 size=       1KiB time=00:00:02.98 bitrate=   1.9kbits/s speed=0.0955x elapsed=0:00:31.25    \nframe=  183 fps=5.8 q=38.0 size=       1KiB time=00:00:03.03 bitrate=   1.9kbits/s speed=0.0955x elapsed=0:00:31.75    \nframe=  189 fps=5.9 q=35.0 size=       1KiB time=00:00:03.13 bitrate=   1.8kbits/s speed=0.0971x elapsed=0:00:32.28    \nframe=  195 fps=5.9 q=38.0 size=       1KiB time=00:00:03.23 bitrate=   1.8kbits/s speed=0.0985x elapsed=0:00:32.83    \nframe=  198 fps=5.9 q=41.0 size=       1KiB time=00:00:03.28 bitrate=   1.7kbits/s speed=0.0985x elapsed=0:00:33.33    \nframe=  205 fps=6.1 q=35.0 size=       1KiB time=00:00:03.40 bitrate=   1.7kbits/s speed= 0.1x elapsed=0:00:33.86    \nframe=  209 fps=6.1 q=27.0 size=       1KiB time=00:00:03.46 bitrate=   1.6kbits/s speed=0.101x elapsed=0:00:34.37    \nframe=  215 fps=6.2 q=38.0 size=       1KiB time=00:00:03.56 bitrate=   1.6kbits/s speed=0.102x elapsed=0:00:34.90    \nframe=  217 fps=6.1 q=34.0 size=       1KiB time=00:00:03.60 bitrate=   1.6kbits/s speed=0.102x elapsed=0:00:35.41    \nframe=  225 fps=6.3 q=28.0 size=       1KiB time=00:00:03.73 bitrate=   1.5kbits/s speed=0.104x elapsed=0:00:35.93    \nframe=  229 fps=6.3 q=38.0 size=       1KiB time=00:00:03.80 bitrate=   1.5kbits/s speed=0.104x elapsed=0:00:36.45    \nframe=  233 fps=6.3 q=35.0 size=       1KiB time=00:00:03.86 bitrate=   1.5kbits/s speed=0.105x elapsed=0:00:36.95    \nframe=  239 fps=6.4 q=38.0 size=       1KiB time=00:00:03.96 bitrate=   1.4kbits/s speed=0.106x elapsed=0:00:37.48    \nframe=  245 fps=6.4 q=35.0 size=       1KiB time=00:00:04.06 bitrate=   1.4kbits/s speed=0.107x elapsed=0:00:38.00    \nframe=  249 fps=6.5 q=35.0 size=       1KiB time=00:00:04.13 bitrate=   1.4kbits/s speed=0.107x elapsed=0:00:38.50    \nframe=  253 fps=6.5 q=35.0 size=       1KiB time=00:00:04.20 bitrate=   1.4kbits/s speed=0.108x elapsed=0:00:39.03    \nframe=  257 fps=6.5 q=29.0 size=       1KiB time=00:00:04.26 bitrate=   1.3kbits/s speed=0.108x elapsed=0:00:39.55    \nframe=  263 fps=6.6 q=38.0 size=       1KiB time=00:00:04.36 bitrate=   1.3kbits/s speed=0.109x elapsed=0:00:40.07    \nframe=  267 fps=6.6 q=40.0 size=       1KiB time=00:00:04.43 bitrate=   1.3kbits/s speed=0.109x elapsed=0:00:40.60    \nframe=  273 fps=6.6 q=28.0 size=       1KiB time=00:00:04.53 bitrate=   1.3kbits/s speed=0.11x elapsed=0:00:41.16    \nframe=  277 fps=6.6 q=42.0 size=       1KiB time=00:00:04.60 bitrate=   1.2kbits/s speed=0.11x elapsed=0:00:41.67    \nframe=  281 fps=6.7 q=38.0 size=       1KiB time=00:00:04.66 bitrate=   1.2kbits/s speed=0.111x elapsed=0:00:42.18    \nframe=  287 fps=6.7 q=42.0 size=       1KiB time=00:00:04.76 bitrate=   1.2kbits/s speed=0.112x elapsed=0:00:42.71    \n[out#0/matroska @ 000001a46cfc7900] video:1402KiB audio:0KiB subtitle:0KiB other streams:0KiB global headers:0KiB muxing overhead: 0.148534%\nframe=  300 fps=7.0 q=42.0 Lsize=    1404KiB time=00:00:04.98 bitrate=2308.8kbits/s speed=0.116x elapsed=0:00:42.99    \n",
  "seconds": 43.45668601989746,
  "probe_out": {}
}